<?xml version="1.0" encoding="UTF-8"?>
<svg width="130px" height="53px" viewBox="0 0 130 53" version="1.1" xmlns="http://www.w3.org/2000/svg" xmlns:xlink="http://www.w3.org/1999/xlink">
    <!-- Generator: Sketch 50.2 (55047) - http://www.bohemiancoding.com/sketch -->
    <title>XPEL PRIME</title>
    <desc>Created with Sketch.</desc>
    <defs>
        <polygon id="path-1" points="4.52014036 50.8737899 6.67209556 44.3170514 7.40062206 44.3170514 9.55257726 50.8737899 11.7941973 44.3394676 12.7244696 44.3394676 9.92244456 52.2411781 9.17150186 52.2411781 7.01954666 45.8749773 4.85638336 52.2411781 4.11664876 52.2411781 1.31462376 44.3394676 2.27852036 44.3394676"></polygon>
        <polygon id="path-2" points="16.8691414 44.3394676 17.7545813 44.3394676 17.7545813 52.1851376 16.8691414 52.1851376"></polygon>
        <polygon id="path-3" points="27.115067 50.6272117 27.115067 44.3394676 27.9780907 44.3394676 27.9780907 52.1851376 27.2719804 52.1851376 22.2059192 45.7516882 22.2059192 52.1851376 21.3428955 52.1851376 21.3428955 44.3394676 22.1722949 44.3394676"></polygon>
        <path d="M38.6747273,48.2510945 C38.6747273,50.4702983 36.9710961,52.1851376 34.5053141,52.1851376 L31.7817458,52.1851376 L31.7817458,44.3394676 L34.5053141,44.3394676 C36.9710961,44.3394676 38.6747273,46.0318907 38.6747273,48.2510945 Z M37.7556631,48.2735107 C37.7556631,46.5250471 36.4891478,45.1576589 34.5053141,45.1576589 L32.6671857,45.1576589 L32.6671857,51.3669463 L34.5053141,51.3669463 C36.4891478,51.3669463 37.7556631,50.0219743 37.7556631,48.2735107 Z" id="path-4"></path>
        <path d="M49.2231678,48.2510945 C49.2231678,50.4254659 47.5979933,52.3196348 45.210668,52.3196348 C42.8233427,52.3196348 41.2205844,50.4478821 41.2205844,48.2735107 C41.2205844,46.0991393 42.8457589,44.2049704 45.2330842,44.2049704 C47.6204095,44.2049704 49.2231678,46.0767231 49.2231678,48.2510945 Z M48.3041036,48.2735107 C48.3041036,46.4802147 47.003964,45.0231617 45.210668,45.0231617 C43.417372,45.0231617 42.1396486,46.4577985 42.1396486,48.2510945 C42.1396486,50.0443905 43.4397882,51.5014435 45.2330842,51.5014435 C47.0263802,51.5014435 48.3041036,50.0668067 48.3041036,48.2735107 Z" id="path-5"></path>
        <path d="M54.6071649,50.8737899 L56.7591201,44.3170514 L57.4876466,44.3170514 L59.6396018,50.8737899 L61.8812218,44.3394676 L62.8114941,44.3394676 L60.0094691,52.2411781 L59.2585264,52.2411781 L57.1065712,45.8749773 L54.9434079,52.2411781 L54.2036733,52.2411781 L51.4016483,44.3394676 L52.3655449,44.3394676 L54.6071649,50.8737899 Z M70.7468289,45.1576589 L70.7468289,52.1851376 L69.8501809,52.1851376 L69.8501809,45.1576589 L67.2162774,45.1576589 L67.2162774,44.3394676 L73.3807324,44.3394676 L73.3807324,45.1576589 L70.7468289,45.1576589 Z M75.1179879,44.3394676 L76.0034278,44.3394676 L76.0034278,52.1851376 L75.1179879,52.1851376 L75.1179879,44.3394676 Z M84.0732598,50.6272117 L84.0732598,44.3394676 L84.9362835,44.3394676 L84.9362835,52.1851376 L84.2301732,52.1851376 L79.164112,45.7516882 L79.164112,52.1851376 L78.3010883,52.1851376 L78.3010883,44.3394676 L79.1304877,44.3394676 L84.0732598,50.6272117 Z M90.1256338,45.1576589 L90.1256338,52.1851376 L89.2289858,52.1851376 L89.2289858,45.1576589 L86.5950823,45.1576589 L86.5950823,44.3394676 L92.7595373,44.3394676 L92.7595373,45.1576589 L90.1256338,45.1576589 Z" id="path-6"></path>
    </defs>
    <g id="Page-1" stroke="none" stroke-width="1" fill="none" fill-rule="evenodd">
        <g id="Artboard" transform="translate(-36.000000, -90.000000)">
            <g id="XPEL-PRIME" transform="translate(36.000000, 90.000000)">
                <g id="W">
                    <use fill="#000000" xlink:href="#path-1"></use>
                    <use fill="#FFFFFE" xlink:href="#path-1"></use>
                </g>
                <g id="I">
                    <use fill="#000000" xlink:href="#path-2"></use>
                    <use fill="#FFFFFE" xlink:href="#path-2"></use>
                </g>
                <g id="N">
                    <use fill="#000000" xlink:href="#path-3"></use>
                    <use fill="#FFFFFE" xlink:href="#path-3"></use>
                </g>
                <g id="D">
                    <use fill="#000000" xlink:href="#path-4"></use>
                    <use fill="#FFFFFE" xlink:href="#path-4"></use>
                </g>
                <g id="O">
                    <use fill="#000000" xlink:href="#path-5"></use>
                    <use fill="#FFFFFE" xlink:href="#path-5"></use>
                </g>
                <g id="W-TINT">
                    <use fill="#000000" xlink:href="#path-6"></use>
                    <use fill="#FFFFFE" xlink:href="#path-6"></use>
                </g>
                <path d="M0.581009259,10.0919574 L12.7555185,10.0919574 C19.9386852,10.0919574 24.5649259,13.783617 24.5649259,20.0718085 L24.5649259,20.1530638 C24.5649259,26.8487447 19.4110463,30.3778936 12.3491759,30.3778936 L8.45435185,30.3778936 L8.45435185,38.4925106 L0.581009259,38.4925106 L0.581009259,10.0919574 Z M12.1878519,24.2109787 C14.9873704,24.2109787 16.6915833,22.7508085 16.6915833,20.5181064 L16.6915833,20.4380638 C16.6915833,18.0028298 14.9873704,16.7051702 12.1466111,16.7051702 L8.45435185,16.7051702 L8.45435185,24.2109787 L12.1878519,24.2109787 Z M57.2227407,38.4925106 L65.1361111,38.4925106 L65.1361111,10.0907447 L57.2227407,10.0907447 L57.2227407,38.4925106 Z M105.547185,10.0919574 L128.394556,10.0919574 L128.394556,16.7864255 L113.338046,16.7864255 L113.338046,21.0868936 L126.974176,21.0868936 L126.974176,27.2950426 L113.338046,27.2950426 L113.338046,31.7980426 L128.59712,31.7980426 L128.59712,38.4925106 L105.547185,38.4925106 L105.547185,10.0919574 Z M54.0217315,38.4925106 L44.931787,38.4925106 L39.2102407,29.8915745 L39.1993241,29.8915745 L39.1993241,23.7234468 L40.9544815,23.7234468 C43.6327037,23.7234468 45.1743796,22.4257872 45.1743796,20.3568085 L45.1743796,20.2755532 C45.1743796,18.0440638 43.5514352,16.9077021 40.9144537,16.9077021 L35.7605741,16.9077021 L35.7605741,20.5981489 L35.7593611,20.5981489 L35.7593611,32.4529362 L35.7605741,32.4529362 L35.7605741,38.4925106 L27.8872315,38.4925106 L27.8872315,10.0919574 L41.3195833,10.0919574 C45.6619907,10.0919574 48.665287,11.2271064 50.5720648,13.1748085 C52.23625,14.7974894 53.088963,16.9889574 53.088963,19.7880213 L53.088963,19.8692766 C53.088963,24.2109787 50.7746296,27.0912979 47.2449074,28.5927021 L54.0217315,38.4925106 Z M92.2021667,10.0919574 L85.4253426,21.0868936 L78.6473056,10.0919574 L70.3288056,10.0919574 L70.3288056,38.4925106 L78.0396111,38.4925106 L78.0396111,22.2632766 L83.9879815,31.3517447 L86.6977407,31.3517447 L92.6885648,22.183234 L92.6885648,38.4925106 L100.520667,38.4925106 L100.520667,10.0919574 L92.2021667,10.0919574 Z" id="Fill-1" fill="#FFFFFE" fill-rule="nonzero"></path>
                <path d="M83.7647963,4.96923404 L0.582222222,4.96923404 L6.90418519,0.0357021277 L90.0867593,0.0357021277 L83.7647963,4.96923404 Z M118.729667,0.0357021277 L94.5286296,0.0357021277 L88.2066667,4.96923404 L112.407704,4.96923404 L118.729667,0.0357021277 Z M123.747694,4.97893617 L116.809546,4.97893617 L123.131509,0.0454042553 L130.07087,0.0454042553 L123.747694,4.97893617 Z" id="Fill-2" fill="#EAA22E" fill-rule="nonzero"></path>
            </g>
        </g>
    </g>
</svg>