<?xml version="1.0" encoding="UTF-8"?>
<svg width="258px" height="44px" viewBox="0 0 258 44" version="1.1" xmlns="http://www.w3.org/2000/svg" xmlns:xlink="http://www.w3.org/1999/xlink">
    <!-- Generator: Sketch 50.2 (55047) - http://www.bohemiancoding.com/sketch -->
    <title>XPEL ULTIMATE PLUS</title>
    <desc>Created with Sketch.</desc>
    <defs>
        <path d="M10.4131229,45.0263762 C10.4131229,47.339592 8.49861038,48.526637 6.23462337,48.526637 L3.65155094,48.526637 L3.65155094,52.2856126 L2.45118198,52.2856126 L2.45118198,41.6326452 L6.43215244,41.6326452 C8.83289034,41.6326452 10.4131229,42.9110013 10.4131229,45.0263762 Z M9.19755939,45.0720318 C9.19755939,43.5349608 8.05796861,42.7435975 6.34098517,42.7435975 L3.65155094,42.7435975 L3.65155094,47.4309032 L6.280207,47.4309032 C8.04277407,47.4309032 9.19755939,46.4873546 9.19755939,45.0720318 Z" id="path-1"></path>
        <path d="M16.9134698,41.5565525 L21.7605293,52.2856126 L20.4689931,52.2856126 L19.2230405,49.4701855 L13.4339193,49.4701855 L12.1727722,52.2856126 L10.9420142,52.2856126 L15.7890736,41.5565525 L16.9134698,41.5565525 Z M18.7520096,48.3896703 L16.3360772,42.9566568 L13.9049502,48.3896703 L18.7520096,48.3896703 Z M23.9637381,41.6326452 L25.1641071,41.6326452 L25.1641071,52.2856126 L23.9637381,52.2856126 L23.9637381,41.6326452 Z M36.1041786,50.1702377 L36.1041786,41.6326452 L37.2741584,41.6326452 L37.2741584,52.2856126 L36.3169022,52.2856126 L29.4489684,43.5501793 L29.4489684,52.2856126 L28.2789885,52.2856126 L28.2789885,41.6326452 L29.4033848,41.6326452 L36.1041786,50.1702377 Z M44.3092322,42.7435975 L44.3092322,52.2856126 L43.0936687,52.2856126 L43.0936687,42.7435975 L39.5229509,42.7435975 L39.5229509,41.6326452 L47.8799499,41.6326452 L47.8799499,42.7435975 L44.3092322,42.7435975 Z M62.6490464,45.0263762 C62.6490464,47.339592 60.7345339,48.526637 58.4705469,48.526637 L55.8874745,48.526637 L55.8874745,52.2856126 L54.6871055,52.2856126 L54.6871055,41.6326452 L58.668076,41.6326452 C61.0688139,41.6326452 62.6490464,42.9110013 62.6490464,45.0263762 Z M61.4334829,45.0720318 C61.4334829,43.5349608 60.2938921,42.7435975 58.5769087,42.7435975 L55.8874745,42.7435975 L55.8874745,47.4309032 L58.5161305,47.4309032 C60.2786976,47.4309032 61.4334829,46.4873546 61.4334829,45.0720318 Z M73.6347015,52.2856126 L72.1608308,52.2856126 L69.0763384,48.1461738 L66.0374297,48.1461738 L66.0374297,52.2856126 L64.8370607,52.2856126 L64.8370607,41.6326452 L69.4106184,41.6326452 C71.7505781,41.6326452 73.2548379,42.8957827 73.2548379,44.8133169 C73.2548379,46.5938843 72.0392744,47.628744 70.3678746,47.9331145 L73.6347015,52.2856126 Z M72.0392744,44.8589725 C72.0392744,43.5349608 71.0364345,42.7435975 69.3194511,42.7435975 L66.0374297,42.7435975 L66.0374297,47.0656586 L69.3042566,47.0656586 C70.8996837,47.0656586 72.0392744,46.2438582 72.0392744,44.8589725 Z" id="path-2"></path>
        <path d="M88.808821,46.9439104 C88.808821,49.8963042 86.6056121,52.4682349 83.3691743,52.4682349 C80.1327365,52.4682349 77.9599168,49.9267413 77.9599168,46.9743474 C77.9599168,44.0219536 80.1631256,41.4500228 83.3995634,41.4500228 C86.6360012,41.4500228 88.808821,43.9915165 88.808821,46.9439104 Z M87.5628684,46.9743474 C87.5628684,44.5393834 85.8003013,42.5609752 83.3691743,42.5609752 C80.9380473,42.5609752 79.2058693,44.5089464 79.2058693,46.9439104 C79.2058693,49.3788744 80.9684364,51.3572826 83.3995634,51.3572826 C85.8306904,51.3572826 87.5628684,49.4093114 87.5628684,46.9743474 Z" id="path-3"></path>
        <path d="M95.1116389,42.7435975 L95.1116389,52.2856126 L93.8960754,52.2856126 L93.8960754,42.7435975 L90.3253576,42.7435975 L90.3253576,41.6326451 L98.6823566,41.6326451 L98.6823566,42.7435975 L95.1116389,42.7435975 Z M108.619588,41.6326451 L108.619588,42.7283789 L102.131518,42.7283789 L102.131518,46.3656064 L107.935834,46.3656064 L107.935834,47.4613402 L102.131518,47.4613402 L102.131518,51.1898788 L108.695561,51.1898788 L108.695561,52.2856126 L100.931149,52.2856126 L100.931149,41.6326451 L108.619588,41.6326451 Z M120.22822,50.5963564 C119.119018,51.7225272 117.903454,52.4682349 115.973747,52.4682349 C112.90445,52.4682349 110.640463,50.0484895 110.640463,46.9743474 C110.640463,43.9306424 112.889255,41.4500228 116.019331,41.4500228 C117.949038,41.4500228 119.103823,42.1348565 120.167441,43.1392791 L119.346936,44.0219536 C118.450458,43.1697162 117.447618,42.5609752 116.004136,42.5609752 C113.648982,42.5609752 111.886415,44.4632908 111.886415,46.9439104 C111.886415,49.4245299 113.664177,51.3572826 116.004136,51.3572826 C117.462813,51.3572826 118.420069,50.7941972 119.438103,49.8202116 L120.22822,50.5963564 Z M126.351621,42.7435975 L126.351621,52.2856126 L125.136057,52.2856126 L125.136057,42.7435975 L121.565339,42.7435975 L121.565339,41.6326451 L129.922338,41.6326451 L129.922338,42.7435975 L126.351621,42.7435975 Z M132.277493,41.6326451 L133.477862,41.6326451 L133.477862,52.2856126 L132.277493,52.2856126 L132.277493,41.6326451 Z M146.970617,46.9439104 C146.970617,49.8963042 144.767408,52.4682349 141.53097,52.4682349 C138.294532,52.4682349 136.121712,49.9267413 136.121712,46.9743474 C136.121712,44.0219536 138.324921,41.4500228 141.561359,41.4500228 C144.797797,41.4500228 146.970617,43.9915165 146.970617,46.9439104 Z M145.724664,46.9743474 C145.724664,44.5393834 143.962097,42.5609752 141.53097,42.5609752 C139.099843,42.5609752 137.367665,44.5089464 137.367665,46.9439104 C137.367665,49.3788744 139.130232,51.3572826 141.561359,51.3572826 C143.992486,51.3572826 145.724664,49.4093114 145.724664,46.9743474 Z M157.333295,50.1702377 L157.333295,41.6326451 L158.503275,41.6326451 L158.503275,52.2856126 L157.546019,52.2856126 L150.678085,43.5501793 L150.678085,52.2856126 L149.508105,52.2856126 L149.508105,41.6326451 L150.632502,41.6326451 L157.333295,50.1702377 Z M173.713013,41.6326451 L173.713013,42.7435975 L167.270527,42.7435975 L167.270527,46.5482287 L173.029259,46.5482287 L173.029259,47.6439625 L167.270527,47.6439625 L167.270527,52.2856126 L166.070158,52.2856126 L166.070158,41.6326451 L173.713013,41.6326451 Z M176.14414,41.6326451 L177.344509,41.6326451 L177.344509,52.2856126 L176.14414,52.2856126 L176.14414,41.6326451 Z M180.459391,52.2856126 L180.459391,41.6326451 L181.65976,41.6326451 L181.65976,51.1746603 L187.64641,51.1746603 L187.64641,52.2856126 L180.459391,52.2856126 Z M198.844789,43.656709 L194.97018,49.3636558 L194.909402,49.3636558 L191.034793,43.6719275 L191.034793,52.2856126 L189.864813,52.2856126 L189.864813,41.6326451 L191.080377,41.6326451 L194.954986,47.4461217 L198.829594,41.6326451 L200.045158,41.6326451 L200.045158,52.2856126 L198.844789,52.2856126 L198.844789,43.656709 Z" id="path-4"></path>
        <path d="M196.877296,16.8225039 C196.877296,21.4902353 192.850985,23.9034842 188.222312,23.9034842 L182.2304,23.9034842 L182.2304,32.191089 L180.581831,32.191089 L180.581831,9.96379649 L188.634454,9.96379649 C193.516753,9.96379649 196.877296,12.4723052 196.877296,16.7589973 L196.877296,16.8225039 Z M195.228728,16.9177637 L195.228728,16.8542572 C195.228728,13.3296436 192.502249,11.4879537 188.507641,11.4879537 L182.2304,11.4879537 L182.2304,22.379327 L188.317422,22.379327 C192.438843,22.379327 195.228728,20.2201043 195.228728,16.9177637 Z" id="path-5"></path>
        <polygon id="path-6" points="216.438195 32.191089 201.759595 32.191089 201.759595 9.96379649 203.408164 9.96379649 203.408164 30.6669318 216.438195 30.6669318"></polygon>
        <path d="M238.599861,22.7603663 C238.599861,29.1427746 234.890582,32.540375 229.501032,32.540375 C224.174888,32.540375 220.402202,29.1745279 220.402202,22.950886 L220.402202,9.96379649 L222.050771,9.96379649 L222.050771,22.7921196 C222.050771,28.03141 224.872359,31.0479711 229.564438,31.0479711 C234.066298,31.0479711 236.951293,28.3171894 236.951293,22.950886 L236.951293,9.96379649 L238.599861,9.96379649 L238.599861,22.7603663 Z M259.714218,26.4437462 C259.714218,30.0318663 256.639004,32.5086217 252.359067,32.5086217 C248.808304,32.5086217 246.081825,31.3337506 243.418753,28.9522549 L244.496663,27.7138772 C246.937813,29.9683597 249.188743,31.0162178 252.454176,31.0162178 C255.783016,31.0162178 258.065649,29.1427746 258.065649,26.6025126 L258.065649,26.539006 C258.065649,24.1892637 256.829223,22.8238729 251.788408,21.8077681 C246.462264,20.7281567 244.306444,18.91822 244.306444,15.5523729 L244.306444,15.4888663 C244.306444,12.1865257 247.318252,9.64626374 251.439673,9.64626374 C254.673403,9.64626374 256.79752,10.5353554 259.04845,12.3452921 L258.002243,13.6471764 C255.909829,11.8372397 253.817416,11.1386677 251.376266,11.1386677 C248.110833,11.1386677 245.955012,13.0121109 245.955012,15.3301 L245.955012,15.3936065 C245.955012,17.7433489 247.159735,19.1722462 252.422473,20.2518576 C257.558398,21.2997157 259.714218,23.1414056 259.714218,26.3802397 L259.714218,26.4437462 Z" id="path-7"></path>
        <path d="M12.9405811,32.9739572 C6.63541173,32.9739572 2.67487819,29.7687955 2.67487819,22.8189892 L2.67487819,10.3474192 L8.91667904,10.3474192 L8.91667904,22.6920521 C8.91667904,25.8972139 10.5325767,27.4204591 13.0039496,27.4204591 C15.4753226,27.4204591 17.0912203,25.9606825 17.0912203,22.8507235 L17.0912203,10.3474192 L23.3330211,10.3474192 L23.3330211,22.6603179 C23.3330211,29.832264 19.2457505,32.9739572 12.9405811,32.9739572 Z" id="path-8"></path>
        <polygon id="path-9" points="27.0320413 32.5614117 27.0320413 10.3474192 33.1787893 10.3474192 33.1787893 27.1665849 43.9197563 27.1665849 43.9197563 32.5614117"></polygon>
        <path d="M48.8472543,32.5614117 L48.8472543,15.7422459 L42.193558,15.7422459 L42.193558,10.3474192 L61.6476987,10.3474192 L61.6476987,15.7422459 L54.9940024,15.7422459 L54.9940024,32.5614117 L48.8472543,32.5614117 Z M64.4675986,32.5614117 L64.4675986,10.3474192 L70.6460309,10.3474192 L70.6460309,32.5614117 L64.4675986,32.5614117 Z M74.7016172,32.5614117 L74.7016172,10.3474192 L81.1968922,10.3474192 L86.488165,18.9474077 L91.7794378,10.3474192 L98.2747128,10.3474192 L98.2747128,32.5614117 L92.159649,32.5614117 L92.159649,19.8042331 L86.488165,28.4994245 L86.3614279,28.4994245 L80.7216282,19.8677017 L80.7216282,32.5614117 L74.7016172,32.5614117 Z" id="path-10"></path>
        <path d="M100.595231,32.5614117 L110.037143,10.1887478 L115.962101,10.1887478 L125.404013,32.5614117 L118.813685,32.5614117 L117.197788,28.5946273 L108.643035,28.5946273 L107.058822,32.5614117 L100.595231,32.5614117 Z M110.449038,23.8027518 L115.423469,23.8027518 L112.952096,17.487631 L110.449038,23.8027518 Z" id="path-11"></path>
        <path d="M130.173811,32.5614117 L130.173811,15.7422459 L123.520114,15.7422459 L123.520114,10.3474192 L142.974255,10.3474192 L142.974255,15.7422459 L136.320559,15.7422459 L136.320559,32.5614117 L130.173811,32.5614117 Z M145.667418,32.5614117 L145.667418,10.3474192 L163.505661,10.3474192 L163.505661,15.5835745 L151.750797,15.5835745 L151.750797,18.9474077 L162.396711,18.9474077 L162.396711,23.8027518 L151.750797,23.8027518 L151.750797,27.3252563 L163.664082,27.3252563 L163.664082,32.5614117 L145.667418,32.5614117 Z" id="path-12"></path>
    </defs>
    <g id="Page-1" stroke="none" stroke-width="1" fill="none" fill-rule="evenodd">
        <g id="Artboard" transform="translate(-37.000000, -26.000000)">
            <g id="XPEL-ULTIMATE-PLUS" transform="translate(35.000000, 17.000000)">
                <g id="P">
                    <use fill="#000000" xlink:href="#path-1"></use>
                    <use fill="#FFFFFE" xlink:href="#path-1"></use>
                </g>
                <g id="AINT-PR">
                    <use fill="#000000" xlink:href="#path-2"></use>
                    <use fill="#FFFFFE" xlink:href="#path-2"></use>
                </g>
                <g id="O">
                    <use fill="#000000" xlink:href="#path-3"></use>
                    <use fill="#FFFFFE" xlink:href="#path-3"></use>
                </g>
                <g id="TECTION-FILM">
                    <use fill="#000000" xlink:href="#path-4"></use>
                    <use fill="#FFFFFE" xlink:href="#path-4"></use>
                </g>
                <g id="P">
                    <use fill="#000000" xlink:href="#path-5"></use>
                    <use fill="#F2B12E" xlink:href="#path-5"></use>
                </g>
                <g id="L">
                    <use fill="#000000" xlink:href="#path-6"></use>
                    <use fill="#F2B12E" xlink:href="#path-6"></use>
                </g>
                <g id="US">
                    <use fill="#000000" xlink:href="#path-7"></use>
                    <use fill="#F2B12E" xlink:href="#path-7"></use>
                </g>
                <g id="U">
                    <use fill="#000000" xlink:href="#path-8"></use>
                    <use fill="#FFFFFE" xlink:href="#path-8"></use>
                </g>
                <g id="L">
                    <use fill="#000000" xlink:href="#path-9"></use>
                    <use fill="#FFFFFE" xlink:href="#path-9"></use>
                </g>
                <g id="TIM">
                    <use fill="#000000" xlink:href="#path-10"></use>
                    <use fill="#FFFFFE" xlink:href="#path-10"></use>
                </g>
                <g id="A">
                    <use fill="#000000" xlink:href="#path-11"></use>
                    <use fill="#FFFFFE" xlink:href="#path-11"></use>
                </g>
                <g id="TE">
                    <use fill="#000000" xlink:href="#path-12"></use>
                    <use fill="#FFFFFE" xlink:href="#path-12"></use>
                </g>
            </g>
        </g>
    </g>
</svg>