<?xml version="1.0" encoding="UTF-8"?>
<svg width="147px" height="45px" viewBox="0 0 147 45" version="1.1" xmlns="http://www.w3.org/2000/svg" xmlns:xlink="http://www.w3.org/1999/xlink">
    <!-- Generator: Sketch 50.2 (55047) - http://www.bohemiancoding.com/sketch -->
    <title>XPEL VISION</title>
    <desc>Created with Sketch.</desc>
    <defs></defs>
    <g id="Page-1" stroke="none" stroke-width="1" fill="none" fill-rule="evenodd">
        <g id="Artboard" transform="translate(-37.000000, -173.000000)" fill-rule="nonzero">
            <g id="XPEL-VISION" transform="translate(37.000000, 173.000000)">
                <path d="M13.3953229,28.6418908 L20.6169789,28.6418908 L32.0111473,0.557692308 L23.4652324,0.557692308 L17.0863915,18.204263 L10.7063962,0.557692308 L2,0.557692308 L13.3953229,28.6418908 Z M34.8998097,28.4423077 L42.7229817,28.4423077 L42.7229817,0.557692308 L34.8998097,0.557692308 L34.8998097,28.4423077 Z M58.892333,28.9201667 C65.7133632,28.9201667 70.247247,25.5340963 70.247247,19.8374233 L70.247247,19.7587305 C70.247247,14.5399166 66.2352159,12.4688139 59.7755572,11.0740129 C55.8835983,10.198128 54.9207109,9.64043574 54.9207109,8.36538462 L54.9207109,8.28555136 C54.9207109,7.28991663 55.8431894,6.49272456 57.7297099,6.49272456 C60.216592,6.49272456 63.025591,7.44958314 65.5932909,9.24126947 L69.4852497,3.78409627 C66.4361061,1.35488438 62.7046285,0.0798332547 57.9294456,0.0798332547 C51.1892333,0.0798332547 47.0571299,3.8240129 47.0571299,9.00291018 L47.0571299,9.08274343 C47.0571299,14.8181925 51.670677,16.4912695 57.648892,17.8461538 C61.4611875,18.7220387 62.383666,19.3595643 62.383666,20.5148655 L62.383666,20.5946988 C62.383666,21.7899166 61.2602973,22.5072754 59.1740411,22.5072754 C55.9240073,22.5072754 52.8344547,21.3519742 50.0658646,19.1611216 L45.732871,24.2989618 C49.183795,27.3668397 53.9174145,28.9201667 58.892333,28.9201667 Z M74.1784602,28.4423077 L82.0027868,28.4423077 L82.0027868,0.557692308 L74.1784602,0.557692308 L74.1784602,28.4423077 Z M101.260536,29 C109.927678,29 116.427746,22.5072754 116.427746,14.5 L116.427746,14.4201667 C116.427746,6.41403178 110.007341,0 101.341354,0 C92.6753669,0 86.1752992,6.49272456 86.1752992,14.5 L86.1752992,14.5798333 C86.1752992,22.5859682 92.594549,29 101.260536,29 Z M101.341354,22.0282759 C97.0880238,22.0282759 94.1589525,18.523596 94.1589525,14.5 L94.1589525,14.4201667 C94.1589525,10.3965707 97.0083605,6.97172408 101.260536,6.97172408 C105.554275,6.97172408 108.483347,10.476404 108.483347,14.5 L108.483347,14.5798333 C108.483347,18.6034293 105.633939,22.0282759 101.341354,22.0282759 Z M120.479031,28.4423077 L128.183285,28.4423077 L128.183285,13.1451156 L140.17897,28.4423077 L147,28.4423077 L147,0.557692308 L139.2969,0.557692308 L139.2969,15.2971921 L127.741096,0.557692308 L120.479031,0.557692308 L120.479031,28.4423077 Z" id="Fill-1" fill="#FFFFFE"></path>
                <path d="M0,44.9174236 L0.625425805,44.9174236 L1.2658526,43.6395541 L4.20720016,43.6395541 L4.84070342,44.9174236 L5.49728512,44.9174236 L3.03366133,40.0485136 L2.46246987,40.0485136 L0,44.9174236 Z M1.50586841,43.1492568 L2.74056511,40.6833196 L3.96833827,43.1492568 L1.50586841,43.1492568 Z M6.56235527,44.9174236 L7.17162616,44.9174236 L7.17162616,43.0388109 L8.715574,43.0388109 L10.2826003,44.9174236 L11.0314958,44.9174236 L9.3721557,42.9417836 C10.2214424,42.8034682 10.8387908,42.333815 10.8387908,41.5328241 L10.8387908,41.5194055 C10.8387908,41.1395541 10.6841652,40.8009909 10.4222249,40.5666804 C10.0829717,40.26218 9.54985971,40.0825764 8.88635448,40.0825764 L6.56235527,40.0825764 L6.56235527,44.9174236 Z M7.17162616,42.5485136 L7.17162616,40.5873245 L8.83904367,40.5873245 C9.71140881,40.5873245 10.2214424,40.9465318 10.2214424,41.5400495 L10.2214424,41.5534682 C10.2214424,42.1748555 9.64217348,42.5485136 8.83212013,42.5485136 L7.17162616,42.5485136 Z M14.614424,45 C15.5941039,45 16.2126062,44.6614368 16.7757202,44.1504955 L16.3741553,43.7985136 C15.8571982,44.2402973 15.370243,44.4952519 14.629425,44.4952519 C13.4408852,44.4952519 12.5373642,43.61891 12.5373642,42.5 L12.5373642,42.4865813 C12.5373642,41.3738646 13.4328077,40.5037159 14.629425,40.5037159 C15.3633195,40.5037159 15.8721992,40.7803468 16.3279984,41.1674236 L16.7445643,40.7669282 C16.2045287,40.3106936 15.6171824,40 14.6375025,40 C13.0473977,40 11.9038609,41.1323287 11.9038609,42.5 L11.9038609,42.5134187 C11.9038609,43.9017341 13.0543213,45 14.614424,45 Z M17.8407904,44.9174236 L18.4512152,44.9174236 L18.4512152,42.7415359 L21.5702667,42.7415359 L21.5702667,44.9174236 L22.1795376,44.9174236 L22.1795376,40.0825764 L21.5702667,40.0825764 L21.5702667,42.2305945 L18.4512152,42.2305945 L18.4512152,40.0825764 L17.8407904,40.0825764 L17.8407904,44.9174236 Z M23.7615649,44.9174236 L24.3708358,44.9174236 L24.3708358,40.0836086 L23.7615649,40.0836086 L23.7615649,44.9174236 Z M27.3825726,44.9174236 L27.999921,44.9174236 L27.999921,40.5873245 L29.8150405,40.5873245 L29.8150405,40.0825764 L25.568607,40.0825764 L25.568607,40.5873245 L27.3825726,40.5873245 L27.3825726,44.9174236 Z M30.9574234,44.9174236 L34.9015293,44.9174236 L34.9015293,44.4199009 L31.5666943,44.4199009 L31.5666943,42.7281173 L34.5161193,42.7281173 L34.5161193,42.2305945 L31.5666943,42.2305945 L31.5666943,40.5800991 L34.8634499,40.5800991 L34.8634499,40.0825764 L30.9574234,40.0825764 L30.9574234,44.9174236 Z M38.5998498,45 C39.5806837,45 40.198032,44.6614368 40.761146,44.1504955 L40.3595811,43.7985136 C39.842624,44.2402973 39.3568228,44.4952519 38.6148508,44.4952519 C37.426311,44.4952519 36.52279,43.61891 36.52279,42.5 L36.52279,42.4865813 C36.52279,41.3738646 37.4182336,40.5037159 38.6148508,40.5037159 C39.3487453,40.5037159 39.8587789,40.7803468 40.3134242,41.1674236 L40.731144,40.7669282 C40.1899546,40.3106936 39.6037621,40 38.6229283,40 C37.0328236,40 35.8904406,41.1323287 35.8904406,42.5 L35.8904406,42.5134187 C35.8904406,43.9017341 37.040901,45 38.5998498,45 Z M43.2547718,44.9174236 L43.8721201,44.9174236 L43.8721201,40.5873245 L45.6872397,40.5873245 L45.6872397,40.0825764 L41.4408062,40.0825764 L41.4408062,40.5873245 L43.2547718,40.5873245 L43.2547718,44.9174236 Z M48.9909188,44.9927746 C50.3421616,44.9927746 51.2456827,44.2609414 51.2456827,42.8519818 L51.2456827,40.0825764 L50.6352579,40.0825764 L50.6352579,42.89327 C50.6352579,43.9502477 50.0017546,44.4890586 49.0059198,44.4890586 C47.9720055,44.4890586 47.3546572,43.9017341 47.3546572,42.8592073 L47.3546572,40.0825764 L46.7442324,40.0825764 L46.7442324,42.89327 C46.7442324,44.2609414 47.6558309,44.9927746 48.9909188,44.9927746 Z M52.6892393,44.9174236 L53.2985102,44.9174236 L53.2985102,43.0388109 L54.842458,43.0388109 L56.4094843,44.9174236 L57.1583798,44.9174236 L55.4990397,42.9417836 C56.3483264,42.8034682 56.9656748,42.333815 56.9656748,41.5328241 L56.9656748,41.5194055 C56.9656748,41.1395541 56.8110492,40.8009909 56.5491089,40.5666804 C56.2087018,40.26218 55.6767437,40.0825764 55.0120846,40.0825764 L52.6892393,40.0825764 L52.6892393,44.9174236 Z M53.2985102,42.5485136 L53.2985102,40.5873245 L54.9659277,40.5873245 C55.8382928,40.5873245 56.3483264,40.9465318 56.3483264,41.5400495 L56.3483264,41.5534682 C56.3483264,42.1748555 55.7690575,42.5485136 54.9578502,42.5485136 L53.2985102,42.5485136 Z M57.806884,44.9174236 L58.4323098,44.9174236 L59.0727366,43.6395541 L62.0140842,43.6395541 L62.6475874,44.9174236 L63.3041691,44.9174236 L60.8405453,40.0485136 L60.2693539,40.0485136 L57.806884,44.9174236 Z M59.3127524,43.1492568 L60.5474491,40.6833196 L61.7752223,43.1492568 L59.3127524,43.1492568 Z M64.3692393,44.9174236 L68.020249,44.9174236 L68.020249,44.4126755 L64.9785102,44.4126755 L64.9785102,40.0825764 L64.3692393,40.0825764 L64.3692393,44.9174236 Z M73.9721794,45 C74.8837779,45 75.6395969,44.6614368 76.1415531,44.2609414 L76.1415531,42.333815 L73.9110215,42.333815 L73.9110215,42.8241123 L75.5553606,42.8241123 L75.5553606,44.0255987 C75.1849516,44.2950041 74.6137601,44.5097027 73.9952579,44.5097027 C72.6832484,44.5097027 71.8570401,43.6529727 71.8570401,42.5 L71.8570401,42.4865813 C71.8570401,41.4089595 72.7144043,40.5037159 73.9110215,40.5037159 C74.674918,40.5037159 75.1387947,40.7318332 75.5553606,41.0569777 L75.9488481,40.6420314 C75.4088125,40.2353427 74.8445446,40 73.9341,40 C72.3128394,40 71.2246908,41.1736168 71.2246908,42.5 L71.2246908,42.5134187 C71.2246908,43.8945087 72.273606,45 73.9721794,45 Z M77.5158743,44.9174236 L81.1680379,44.9174236 L81.1680379,44.4126755 L78.1262992,44.4126755 L78.1262992,40.0825764 L77.5158743,40.0825764 L77.5158743,44.9174236 Z M81.8315432,44.9174236 L82.456969,44.9174236 L83.0973958,43.6395541 L86.0387433,43.6395541 L86.6722466,44.9174236 L87.3276744,44.9174236 L84.8652045,40.0485136 L84.294013,40.0485136 L81.8315432,44.9174236 Z M83.3374116,43.1492568 L84.5721083,40.6833196 L85.7998814,43.1492568 L83.3374116,43.1492568 Z M90.1386287,44.9855491 C91.2117763,44.9855491 91.9837502,44.4477704 91.9837502,43.61891 L91.9837502,43.6044591 C91.9837502,42.8664327 91.4275598,42.4721305 90.222865,42.23782 C89.0343252,42.0097027 88.75623,41.7537159 88.75623,41.2985136 L88.75623,41.2840628 C88.75623,40.8495045 89.2039518,40.5037159 89.9066904,40.5037159 C90.4628809,40.5037159 90.964837,40.6626755 91.4656392,41.0291082 L91.8210472,40.6079686 C91.2729342,40.2146986 90.7098202,40.0134187 89.9216914,40.0134187 C88.8958546,40.0134187 88.1469591,40.5728737 88.1469591,41.3325764 L88.1469591,41.3470273 C88.1469591,42.1407927 88.7181506,42.5 89.9609247,42.7415359 C91.0952302,42.9552023 91.365248,43.2111891 91.365248,43.6601982 L91.365248,43.6736168 C91.365248,44.1504955 90.8875242,44.4952519 90.1617072,44.4952519 C89.4128117,44.4952519 88.8716222,44.2681668 88.3085082,43.8119323 L87.9300217,44.2124277 C88.578526,44.7305945 89.2812646,44.9855491 90.1386287,44.9855491 Z M95.0024106,44.9855491 C96.0755582,44.9855491 96.8475321,44.4477704 96.8475321,43.61891 L96.8475321,43.6044591 C96.8475321,42.8664327 96.2913416,42.4721305 95.0866469,42.23782 C93.8981071,42.0097027 93.6200119,41.7537159 93.6200119,41.2985136 L93.6200119,41.2840628 C93.6200119,40.8495045 94.0677336,40.5037159 94.7704722,40.5037159 C95.3266627,40.5037159 95.8274649,40.6626755 96.3294211,41.0291082 L96.6848291,40.6079686 C96.1367161,40.2146986 95.5736021,40.0134187 94.7854732,40.0134187 C93.7584825,40.0134187 93.009587,40.5728737 93.009587,41.3325764 L93.009587,41.3470273 C93.009587,42.1407927 93.5819324,42.5 94.8247066,42.7415359 C95.9590121,42.9552023 96.2290298,43.2111891 96.2290298,43.6601982 L96.2290298,43.6736168 C96.2290298,44.1504955 95.7501521,44.4952519 95.025489,44.4952519 C94.2765936,44.4952519 93.7354041,44.2681668 93.1722901,43.8119323 L92.7938036,44.2124277 C93.4423078,44.7305945 94.1450464,44.9855491 95.0024106,44.9855491 Z M102.258273,44.9855491 C103.331421,44.9855491 104.103395,44.4477704 104.103395,43.61891 L104.103395,43.6044591 C104.103395,42.8664327 103.548358,42.4721305 102.343663,42.23782 C101.155123,42.0097027 100.877028,41.7537159 100.877028,41.2985136 L100.877028,41.2840628 C100.877028,40.8495045 101.32475,40.5037159 102.027489,40.5037159 C102.582525,40.5037159 103.084481,40.6626755 103.586437,41.0291082 L103.941845,40.6079686 C103.393732,40.2146986 102.829465,40.0134187 102.04249,40.0134187 C101.015499,40.0134187 100.266603,40.5728737 100.266603,41.3325764 L100.266603,41.3470273 C100.266603,42.1407927 100.837795,42.5 102.080569,42.7415359 C103.216028,42.9552023 103.486046,43.2111891 103.486046,43.6601982 L103.486046,43.6736168 C103.486046,44.1504955 103.007169,44.4952519 102.281352,44.4952519 C101.53361,44.4952519 100.99242,44.2681668 100.429306,43.8119323 L100.05082,44.2124277 C100.699324,44.7305945 101.402063,44.9855491 102.258273,44.9855491 Z M107.855949,45 C109.500288,45 110.619593,43.8325764 110.619593,42.5 L110.619593,42.4865813 C110.619593,41.1529727 109.515289,40 107.87095,40 C106.226611,40 105.107307,41.1674236 105.107307,42.5 L105.107307,42.5134187 C105.107307,43.8470273 106.21161,45 107.855949,45 Z M107.87095,44.4952519 C106.636254,44.4952519 105.74081,43.5982659 105.74081,42.5 L105.74081,42.4865813 C105.74081,41.3883154 106.620099,40.5037159 107.855949,40.5037159 C109.090646,40.5037159 109.98609,41.4017341 109.98609,42.5 L109.98609,42.5134187 C109.98609,43.6116846 109.106801,44.4952519 107.87095,44.4952519 Z M111.908524,44.9174236 L115.560688,44.9174236 L115.560688,44.4126755 L112.518949,44.4126755 L112.518949,40.0825764 L111.908524,40.0825764 L111.908524,44.9174236 Z M118.69474,44.9927746 C120.045983,44.9927746 120.94835,44.2609414 120.94835,42.8519818 L120.94835,40.0825764 L120.339079,40.0825764 L120.339079,42.89327 C120.339079,43.9502477 119.705576,44.4890586 118.709741,44.4890586 C117.675827,44.4890586 117.058479,43.9017341 117.058479,42.8592073 L117.058479,40.0825764 L116.448054,40.0825764 L116.448054,42.89327 C116.448054,44.2609414 117.358498,44.9927746 118.69474,44.9927746 Z M123.820462,44.9174236 L124.437811,44.9174236 L124.437811,40.5873245 L126.25293,40.5873245 L126.25293,40.0825764 L122.006497,40.0825764 L122.006497,40.5873245 L123.820462,40.5873245 L123.820462,44.9174236 Z M127.449548,44.9174236 L128.058818,44.9174236 L128.058818,40.0836086 L127.449548,40.0836086 L127.449548,44.9174236 Z M132.150626,45 C133.794965,45 134.91427,43.8325764 134.91427,42.5 L134.91427,42.4865813 C134.91427,41.1529727 133.809966,40 132.165627,40 C130.521288,40 129.401984,41.1674236 129.401984,42.5 L129.401984,42.5134187 C129.401984,43.8470273 130.506287,45 132.150626,45 Z M132.165627,44.4952519 C130.930931,44.4952519 130.035487,43.5982659 130.035487,42.5 L130.035487,42.4865813 C130.035487,41.3883154 130.914776,40.5037159 132.150626,40.5037159 C133.385323,40.5037159 134.280767,41.4017341 134.280767,42.5 L134.280767,42.5134187 C134.280767,43.6116846 133.401478,44.4952519 132.165627,44.4952519 Z M136.203201,44.9174236 L136.797471,44.9174236 L136.797471,40.952725 L140.286931,44.9174236 L140.773887,44.9174236 L140.773887,40.0825764 L140.179617,40.0825764 L140.179617,43.9574732 L136.774392,40.0825764 L136.203201,40.0825764 L136.203201,44.9174236 Z M144.154878,44.9855491 C145.228026,44.9855491 146,44.4477704 146,43.61891 L146,43.6044591 C146,42.8664327 145.44381,42.4721305 144.240269,42.23782 C143.050575,42.0097027 142.77248,41.7537159 142.77248,41.2985136 L142.77248,41.2840628 C142.77248,40.8495045 143.220202,40.5037159 143.92294,40.5037159 C144.479131,40.5037159 144.981087,40.6626755 145.483043,41.0291082 L145.837297,40.6079686 C145.289184,40.2146986 144.72607,40.0134187 143.939095,40.0134187 C142.912104,40.0134187 142.163209,40.5728737 142.163209,41.3325764 L142.163209,41.3470273 C142.163209,42.1407927 142.7344,42.5 143.977174,42.7415359 C145.112634,42.9552023 145.382652,43.2111891 145.382652,43.6601982 L145.382652,43.6736168 C145.382652,44.1504955 144.903774,44.4952519 144.177957,44.4952519 C143.429061,44.4952519 142.889026,44.2681668 142.324758,43.8119323 L141.947425,44.2124277 C142.59593,44.7305945 143.297514,44.9855491 144.154878,44.9855491 Z" id="Fill-2" fill="#F2B12F"></path>
            </g>
        </g>
    </g>
</svg>