<?xml version="1.0" encoding="UTF-8"?>
<svg width="133px" height="53px" viewBox="0 0 133 53" version="1.1" xmlns="http://www.w3.org/2000/svg" xmlns:xlink="http://www.w3.org/1999/xlink">
    <!-- Generator: Sketch 53 (72520) - https://sketchapp.com -->
    <title>fusion-plus-logo-reverse</title>
    <desc>Created with Sketch.</desc>
    <g id="Page-1" stroke="none" stroke-width="1" fill="none" fill-rule="evenodd">
        <g id="fusion-plus-logo-reverse" fill-rule="nonzero">
            <g id="Group">
                <path d="M79.6,10.3 C79.6,7 80.4,4.5 82.1,2.8 C83.7,1.1 86.1,0.2 89.2,0.2 C92.3,0.2 94.7,1.1 96.3,2.8 C97.9,4.5 98.8,7 98.8,10.3 L98.8,31.2 C98.8,34.5 98,37 96.3,38.7 C94.7,40.4 92.3,41.3 89.2,41.3 C86.1,41.3 83.7,40.4 82.1,38.7 C80.5,37 79.6,34.5 79.6,31.2 L79.6,10.3 Z M85.9,31.6 C85.9,33.1 86.2,34.1 86.8,34.7 C87.4,35.3 88.2,35.6 89.2,35.6 C90.2,35.6 91,35.3 91.6,34.7 C92.2,34.1 92.5,33.1 92.5,31.6 L92.5,9.9 C92.5,8.4 92.2,7.4 91.6,6.8 C91,6.2 90.2,5.9 89.2,5.9 C88.2,5.9 87.4,6.2 86.8,6.8 C86.2,7.4 85.9,8.4 85.9,9.9 L85.9,31.6 Z M68.1,40.9 L74.4,40.9 L74.4,0.6 L68.1,0.6 L68.1,40.9 Z M108.5,11.7 L108.5,40.8 L102.8,40.8 L102.8,0.6 L110.7,0.6 L117.2,24.7 L117.2,0.6 L122.8,0.6 L122.8,40.8 L116.3,40.8 L108.5,11.7 Z M27.4,0.6 L27.4,31.6 C27.4,33.1 27.7,34.1 28.3,34.6 C28.9,35.2 29.7,35.5 30.7,35.5 C31.7,35.5 32.5,35.2 33.1,34.6 C33.7,34 34,33 34,31.6 L34,0.6 L40,0.6 L40,31.2 C40,34.5 39.2,37 37.6,38.7 C36,40.4 33.7,41.3 30.6,41.3 C27.5,41.3 25.1,40.4 23.6,38.7 C22,37 21.2,34.5 21.2,31.2 L21.2,0.6 L27.4,0.6 Z M6.8,18.5 L15,18.5 L15,24.2 L6.8,24.2 L6.8,40.8 L0.5,40.8 L0.5,0.6 L17.2,0.6 L17.2,6.3 L6.8,6.3 L6.8,18.5 Z M45.5,15.3 C46.1,16.7 46.9,18 47.8,19.1 C48.7,20.2 49.7,21.2 50.8,22.2 C51.9,23.1 52.8,24.1 53.8,25 C54.7,25.9 55.5,26.9 56.1,28 C56.7,29.1 57,30.3 57,31.6 C57,33.1 56.7,34.1 56.1,34.6 C55.5,35.2 54.7,35.5 53.7,35.5 C52.7,35.5 51.9,35.2 51.3,34.6 C50.7,34 50.4,33 50.4,31.6 L50.4,28.7 L44.4,28.7 L44.4,31.2 C44.4,34.5 45.2,37 46.8,38.7 C48.4,40.4 50.7,41.3 53.8,41.3 C56.9,41.3 59.3,40.4 60.8,38.7 C62.4,37 63.2,34.5 63.2,31.2 C63.2,29.3 62.9,27.6 62.3,26.2 C61.7,24.8 60.9,23.5 60,22.4 C59.1,21.3 58.1,20.3 57,19.3 C55.9,18.4 55,17.4 54,16.5 C53.1,15.6 52.3,14.6 51.7,13.5 C51.1,12.4 50.8,11.2 50.8,9.9 C50.8,8.4 51.1,7.4 51.6,6.8 C52.2,6.2 52.9,5.9 53.9,5.9 C54.9,5.9 55.7,6.2 56.2,6.8 C56.8,7.4 57,8.4 57,9.9 L57,11.6 L63,11.6 L63,10.3 C63,7 62.2,4.5 60.7,2.8 C59.1,1.1 56.8,0.2 53.7,0.2 C50.6,0.2 48.3,1.1 46.7,2.8 C45.1,4.5 44.4,7 44.4,10.3 C44.6,12.2 44.9,13.9 45.5,15.3 L45.5,15.3 Z" id="Shape" fill="#FFFFFF"></path>
                <path d="M128.5,3.8 C128.1,3.8 127.8,3.5 127.8,2.9 C127.8,2.4 128,1.9 128.4,1.4 L127.6,0.9 C127.1,1.5 126.9,2.1 126.9,3 C126.9,4.1 127.6,4.9 128.6,4.9 C129.7,4.9 130,4.2 130.3,3 C130.5,1.9 130.8,1.7 131.2,1.7 C131.6,1.7 131.9,2.1 131.9,2.7 C131.9,3.4 131.6,4 131.2,4.5 L131.9,5.1 C132.5,4.4 132.8,3.6 132.8,2.7 C132.8,1.5 132.2,0.7 131.1,0.7 C130.1,0.7 129.7,1.3 129.4,2.5 C129.1,3.5 128.9,3.8 128.5,3.8 L128.5,3.8 Z M127,12.6 L127,13.6 L130.3,13.6 C131.3,13.6 131.9,14.1 131.9,15 C131.9,15.9 131.3,16.4 130.3,16.4 L127,16.4 L127,17.4 L130.3,17.4 C132,17.4 132.8,16.5 132.8,15 C132.8,13.5 131.9,12.6 130.2,12.6 L127,12.6 L127,12.6 Z M132.7,28.8 L132.7,24.8 L131.8,24.8 L131.8,27.8 L127,27.8 L127,28.8 L132.7,28.8 Z M128.9,37.5 C129.5,37.5 129.9,38 129.9,38.7 L129.9,39.9 L127.8,39.9 L127.8,38.7 C127.9,37.9 128.2,37.5 128.9,37.5 L128.9,37.5 Z M128.9,36.4 C127.7,36.4 127,37.2 127,38.6 L127,40.8 L132.7,40.8 L132.7,39.8 L130.9,39.8 L130.9,38.7 C130.8,37.5 130.2,36.4 128.9,36.4 L128.9,36.4 Z" id="Shape" fill="#FCB61A"></path>
            </g>
            <g id="Group" transform="translate(0.000000, 47.000000)" fill="#FFFFFF">
                <path d="M4.4,5.3 C4.3,5.4 4.1,5.5 4,5.6 C3.8,5.7 3.7,5.7 3.5,5.8 C3.3,5.8 3.1,5.9 2.9,5.9 C2.6,5.9 2.2,5.8 2,5.7 C1.7,5.6 1.5,5.4 1.2,5.1 C1,4.9 0.8,4.6 0.7,4.3 C0.6,4 0.5,3.6 0.5,3.3 C0.5,2.9 0.6,2.6 0.7,2.3 C0.8,2 1,1.7 1.2,1.5 C1.4,1.1 1.7,1 2,0.8 C2.3,0.7 2.6,0.6 3,0.6 C3.2,0.6 3.4,0.6 3.6,0.7 C3.8,0.7 3.9,0.8 4.1,0.9 C4.2,1 4.4,1.1 4.5,1.2 C4.6,1.3 4.7,1.4 4.9,1.5 L4.5,1.9 C4.3,1.7 4.1,1.5 3.8,1.4 C3.6,1.3 3.3,1.2 3,1.2 C2.7,1.2 2.5,1.3 2.3,1.4 C2.1,1.5 1.9,1.7 1.7,1.8 C1.5,2 1.4,2.2 1.3,2.5 C1.2,2.8 1.2,3 1.2,3.3 C1.2,3.6 1.2,3.9 1.3,4.1 C1.4,4.4 1.5,4.6 1.7,4.8 C1.8,4.9 2,5 2.2,5.2 C2.4,5.3 2.7,5.4 2.9,5.4 C3.2,5.4 3.5,5.3 3.7,5.2 C4,5 4.2,4.8 4.4,4.6 L4.8,5 C4.7,5.1 4.5,5.2 4.4,5.3 Z" id="Path"></path>
                <polygon id="Path" points="13.9 1.2 11 1.2 11 2.9 13.6 2.9 13.6 3.4 11 3.4 11 5.2 13.9 5.2 13.9 5.7 10.4 5.7 10.4 0.6 13.8 0.6 13.8 1.2"></polygon>
                <path d="M23,5.8 L21.6,3.8 L20.2,3.8 L20.2,5.8 L19.7,5.8 L19.7,0.7 L21.7,0.7 C22,0.7 22.2,0.7 22.4,0.8 C22.6,0.9 22.8,1 22.9,1.1 C23,1.2 23.2,1.4 23.2,1.6 C23.3,1.8 23.3,2 23.3,2.2 C23.3,2.4 23.3,2.6 23.2,2.8 C23.1,3 23,3.1 22.9,3.2 C22.8,3.3 22.6,3.4 22.5,3.5 C22.3,3.6 22.2,3.6 22,3.7 L23.5,5.8 L23,5.8 Z M22.6,1.5 C22.4,1.3 22.1,1.2 21.7,1.2 L20.2,1.2 L20.2,3.3 L21.7,3.3 C21.9,3.3 22,3.3 22.2,3.2 C22.3,3.2 22.5,3.1 22.6,3 C22.7,2.9 22.8,2.8 22.9,2.7 C23,2.6 23,2.4 23,2.3 C23,1.9 22.9,1.7 22.6,1.5 Z" id="Shape"></path>
                <path d="M33.8,5.8 L33.2,5.8 L32.6,4.5 L30,4.5 L29.4,5.8 L29,5.8 L31.2,0.7 L31.7,0.7 L33.8,5.8 Z M31.4,1.3 L30.3,3.9 L32.5,3.9 L31.4,1.3 Z" id="Shape"></path>
                <polygon id="Path" points="41.7 4.4 41.7 4.4 40 1.7 40 5.8 39.5 5.8 39.5 0.7 40 0.7 41.7 3.5 43.4 0.7 44 0.7 44 5.8 43.5 5.8 43.5 1.7"></polygon>
                <polygon id="Path" points="50.7 0.7 50.7 5.8 50.2 5.8 50.2 0.7"></polygon>
                <path d="M60.5,5.3 C60.4,5.4 60.2,5.5 60.1,5.6 C59.9,5.7 59.8,5.7 59.6,5.8 C59.4,5.8 59.2,5.9 59,5.9 C58.7,5.9 58.3,5.8 58.1,5.7 C57.8,5.6 57.6,5.4 57.3,5.1 C57.1,4.9 56.9,4.6 56.8,4.3 C56.7,4 56.6,3.6 56.6,3.3 C56.6,2.9 56.7,2.6 56.8,2.3 C56.9,2 57.1,1.7 57.3,1.5 C57.5,1.3 57.8,1.1 58.1,0.9 C58.4,0.8 58.7,0.7 59.1,0.7 C59.3,0.7 59.5,0.7 59.7,0.8 C59.9,0.8 60,0.9 60.2,1 C60.3,1.1 60.5,1.2 60.6,1.3 C60.7,1.4 60.8,1.5 61,1.6 L60.6,2 C60.4,1.8 60.2,1.6 59.9,1.5 C59.7,1.4 59.4,1.3 59.1,1.3 C58.8,1.3 58.6,1.4 58.4,1.5 C58.2,1.6 58,1.8 57.8,1.9 C57.6,2.1 57.5,2.3 57.4,2.6 C57.3,2.9 57.3,3.1 57.3,3.4 C57.3,3.7 57.3,4 57.4,4.2 C57.5,4.5 57.6,4.7 57.8,4.9 C58,5.1 58.2,5.2 58.4,5.3 C58.6,5.4 58.9,5.5 59.1,5.5 C59.4,5.5 59.7,5.4 59.9,5.3 C60.1,5.2 60.4,5 60.6,4.8 L61,5.2 C60.7,5.1 60.6,5.2 60.5,5.3 Z" id="Path"></path>
                <path d="M77,5.3 C76.9,5.4 76.7,5.5 76.6,5.6 C76.4,5.7 76.3,5.7 76.1,5.8 C75.9,5.8 75.7,5.9 75.5,5.9 C75.2,5.9 74.8,5.8 74.6,5.7 C74.3,5.6 74.1,5.4 73.8,5.1 C73.6,4.9 73.4,4.6 73.3,4.3 C73.2,4 73.1,3.6 73.1,3.3 C73.1,2.9 73.2,2.6 73.3,2.3 C73.4,2 73.6,1.7 73.8,1.5 C74,1.3 74.3,1.1 74.6,0.9 C74.9,0.8 75.2,0.7 75.6,0.7 C75.8,0.7 76,0.7 76.2,0.8 C76.4,0.8 76.5,0.9 76.7,1 C76.8,1.1 77,1.2 77.1,1.3 C77.2,1.4 77.3,1.5 77.5,1.6 L77,1.8 C76.8,1.6 76.6,1.4 76.3,1.3 C76.1,1.2 75.8,1.1 75.5,1.1 C75.2,1.1 75,1.2 74.8,1.3 C74.6,1.4 74.4,1.6 74.2,1.7 C74,1.9 73.9,2.1 73.8,2.4 C73.7,2.7 73.7,2.9 73.7,3.2 C73.7,3.5 73.7,3.8 73.8,4 C73.9,4.3 74,4.5 74.2,4.7 C74.4,4.9 74.6,5 74.8,5.1 C75,5.2 75.3,5.3 75.5,5.3 C75.8,5.3 76.1,5.2 76.3,5.1 C76.5,5 76.8,4.8 77,4.6 L77.4,5 C77.3,5.1 77.1,5.2 77,5.3 Z" id="Path"></path>
                <path d="M87.4,4.2 C87.3,4.5 87.1,4.8 86.9,5 C86.7,5.2 86.4,5.4 86.1,5.6 C85.8,5.7 85.5,5.8 85.1,5.8 C84.7,5.8 84.4,5.7 84.1,5.6 C83.8,5.5 83.6,5.3 83.3,5 C83.1,4.8 82.9,4.5 82.8,4.2 C82.7,3.9 82.6,3.6 82.6,3.2 C82.6,2.8 82.7,2.5 82.8,2.2 C82.9,1.9 83.1,1.6 83.3,1.4 C83.5,1.2 83.8,1 84.1,0.8 C84.4,0.7 84.7,0.6 85.1,0.6 C85.5,0.6 85.8,0.7 86.1,0.8 C86.4,0.9 86.6,1.1 86.9,1.4 C87.1,1.6 87.3,1.9 87.4,2.2 C87.5,2.5 87.6,2.8 87.6,3.2 C87.5,3.6 87.5,3.9 87.4,4.2 Z M86.9,2.4 C86.8,2.1 86.7,1.9 86.5,1.7 C86.3,1.5 86.1,1.4 85.9,1.3 C85.7,1.2 85.4,1.1 85.2,1.1 C85,1.1 84.7,1.2 84.5,1.3 C84.3,1.4 84.1,1.6 83.9,1.7 C83.7,1.9 83.6,2.1 83.5,2.4 C83.4,2.7 83.4,2.9 83.4,3.2 C83.4,3.5 83.4,3.8 83.5,4 C83.6,4.3 83.7,4.5 83.9,4.7 C84.1,4.9 84.3,5 84.5,5.1 C84.7,5.2 85,5.3 85.2,5.3 C85.4,5.3 85.7,5.2 85.9,5.1 C86.1,5 86.3,4.8 86.5,4.7 C86.7,4.5 86.8,4.3 86.9,4 C87,3.7 87,3.5 87,3.2 C87,2.9 86.9,2.7 86.9,2.4 Z" id="Shape"></path>
                <path d="M97.6,5.8 L97,5.8 L96.4,4.5 L93.8,4.5 L93.2,5.8 L92.7,5.8 L94.9,0.7 L95.4,0.7 L97.6,5.8 Z M95.1,1.3 L94,3.9 L96.2,3.9 L95.1,1.3 Z" id="Shape"></path>
                <polygon id="Path" points="104.4 5.8 103.9 5.8 103.9 1.3 102.3 1.3 102.3 0.8 106 0.8 106 1.3 104.4 1.3 104.4 5.8"></polygon>
                <polygon id="Path" points="112.3 0.7 112.3 5.8 111.8 5.8 111.8 0.7"></polygon>
                <polygon id="Path" points="122 0.7 122.5 0.7 122.5 5.8 122.1 5.8 119 1.7 119 5.8 118.5 5.8 118.5 0.7 119 0.7 122 4.7"></polygon>
                <path d="M131.8,5.6 C131.5,5.8 131.1,5.8 130.7,5.8 C130.3,5.8 130,5.7 129.7,5.6 C129.4,5.5 129.2,5.3 128.9,5 C128.7,4.8 128.5,4.5 128.4,4.2 C128.3,3.9 128.2,3.5 128.2,3.2 C128.2,2.9 128.3,2.5 128.4,2.2 C128.5,1.9 128.7,1.6 128.9,1.4 C129.1,1.2 129.4,1 129.6,0.8 C129.9,0.7 130.2,0.6 130.6,0.6 C130.8,0.6 131,0.6 131.1,0.6 C131.3,0.6 131.4,0.7 131.6,0.7 C131.7,0.8 131.9,0.8 132,0.9 C132.1,1 132.2,1.1 132.4,1.2 L132.1,1.6 C132,1.5 131.9,1.4 131.8,1.4 C131.7,1.3 131.6,1.3 131.5,1.2 C131.4,1.1 131.3,1.1 131.1,1.1 C131,1.1 130.8,1.1 130.6,1.1 C130.3,1.1 130.1,1.2 129.9,1.3 C129.7,1.4 129.5,1.6 129.3,1.7 C129.1,1.9 129,2.1 128.9,2.4 C128.8,2.7 128.8,2.9 128.8,3.2 C128.8,3.5 128.8,3.8 128.9,4 C129,4.3 129.1,4.5 129.3,4.7 C129.5,4.9 129.7,5 129.9,5.1 C130.1,5.2 130.4,5.3 130.7,5.3 C131,5.3 131.2,5.3 131.5,5.2 C131.7,5.1 131.9,5 132.1,4.8 L132.1,3.5 L130.7,3.5 L130.7,3 L132.7,3 L132.7,5 C132.4,5.3 132.2,5.5 131.8,5.6 Z" id="Path"></path>
            </g>
        </g>
    </g>
</svg>