<svg id="Layer_1" data-name="Layer 1" xmlns="http://www.w3.org/2000/svg" viewBox="0 0 152 44.02"><defs><style>.cls-1{fill:#fff;}.cls-2{fill:#fdb71a;}</style></defs><title>Interior-Protection-logo</title><path class="cls-1" d="M.44.61h6V22h-6Z" transform="translate(0 -0.18)"/><path class="cls-1" d="M10.31.61h5.55l8.83,11.31V.61h5.84V22H25.32L16.16,10.27V22H10.31Z" transform="translate(0 -0.18)"/><path class="cls-1" d="M39.55,5.81H33.13V.61H51.91v5.2H45.48V22H39.55Z" transform="translate(0 -0.18)"/><path class="cls-1" d="M54.51.61H71.69v5H60.35V8.9H70.62v4.68H60.35V17h11.5V22H54.51Z" transform="translate(0 -0.18)"/><path class="cls-1" d="M74.9.61H85a12.52,12.52,0,0,1,4.19.61A7.29,7.29,0,0,1,92,2.93a6.65,6.65,0,0,1,1.89,5V8a6.71,6.71,0,0,1-1.19,4.1,7.47,7.47,0,0,1-3.21,2.47L94.6,22H87.75l-4.31-6.49h-2.6V22H74.9Zm9.85,10.27a3.61,3.61,0,0,0,2.36-.68,2.29,2.29,0,0,0,.82-1.85V8.29a2.21,2.21,0,0,0-.86-1.92,4,4,0,0,0-2.35-.62H80.84v5.13Z" transform="translate(0 -0.18)"/><path class="cls-1" d="M97,.61h6V22H97Z" transform="translate(0 -0.18)"/><path class="cls-1" d="M117.66,22.44a12,12,0,0,1-4.59-.87,11.24,11.24,0,0,1-3.64-2.37,11,11,0,0,1-2.4-3.51,10.83,10.83,0,0,1-.87-4.32v-.06a10.92,10.92,0,0,1,3.3-7.87,11.48,11.48,0,0,1,3.67-2.39,12.52,12.52,0,0,1,9.17,0,11.24,11.24,0,0,1,3.64,2.37,10.89,10.89,0,0,1,2.4,3.52,10.62,10.62,0,0,1,.88,4.31v.06a11,11,0,0,1-3.31,7.88,11.45,11.45,0,0,1-3.67,2.38A11.86,11.86,0,0,1,117.66,22.44Zm0-5.35a5.28,5.28,0,0,0,2.24-.46,5,5,0,0,0,1.72-1.23,5.68,5.68,0,0,0,1.1-1.82,6.06,6.06,0,0,0,.4-2.21v-.06a6,6,0,0,0-.4-2.2A5.57,5.57,0,0,0,119.88,6a5.14,5.14,0,0,0-2.24-.48,5.31,5.31,0,0,0-2.22.46,5.31,5.31,0,0,0-2.82,3.06,6.21,6.21,0,0,0-.39,2.2v.06a6.18,6.18,0,0,0,.4,2.2,5.83,5.83,0,0,0,1.12,1.84,5.5,5.5,0,0,0,1.73,1.27A5.32,5.32,0,0,0,117.7,17.09Z" transform="translate(0 -0.18)"/><path class="cls-1" d="M132.31.61h10.12a12.48,12.48,0,0,1,4.19.61,7.21,7.21,0,0,1,2.78,1.71,6.65,6.65,0,0,1,1.9,5V8a6.71,6.71,0,0,1-1.2,4.1,7.47,7.47,0,0,1-3.21,2.47L152,22h-6.85l-4.31-6.49h-2.6V22h-5.93Zm9.84,10.27a3.59,3.59,0,0,0,2.36-.68,2.29,2.29,0,0,0,.82-1.85V8.29a2.23,2.23,0,0,0-.85-1.92,4,4,0,0,0-2.36-.62h-3.88v5.13Z" transform="translate(0 -0.18)"/><path class="cls-2" d="M6,38.81H2.8v5.11H0V28H6.28c3.7,0,6.05,2.09,6.05,5.34C12.33,36.94,9.46,38.81,6,38.81Zm.09-8.26H2.8v5.73H6.05c2.11,0,3.43-1.16,3.43-2.86C9.48,31.53,8.14,30.55,6.05,30.55Z" transform="translate(0 -0.18)"/><path class="cls-2" d="M25.4,43.92l-3.91-5.54H18v5.54h-2.8V28h7.1c3.66,0,5.91,1.93,5.91,5a4.78,4.78,0,0,1-3.8,4.85l4.3,6ZM22.06,30.55H18V35.9h4.09c2,0,3.28-1,3.28-2.69S24.13,30.55,22.06,30.55Z" transform="translate(0 -0.18)"/><path class="cls-2" d="M39.23,44.2a8.24,8.24,0,1,1,0-16.47,8.24,8.24,0,1,1,0,16.47Zm0-13.9a5.39,5.39,0,0,0-5.37,5.64,5.46,5.46,0,0,0,5.41,5.69A5.39,5.39,0,0,0,44.64,36,5.46,5.46,0,0,0,39.23,30.3Z" transform="translate(0 -0.18)"/><path class="cls-2" d="M56.83,43.92H54V30.6H49V28H61.88V30.6H56.83Z" transform="translate(0 -0.18)"/><path class="cls-2" d="M76.64,30.51h-9v4.14h8v2.5h-8v4.27h9.12v2.5H64.83V28H76.64Z" transform="translate(0 -0.18)"/><path class="cls-2" d="M87.46,44.2A8,8,0,0,1,79.37,36a8.06,8.06,0,0,1,8.21-8.26,8.33,8.33,0,0,1,6.23,2.48L92,32.28a6.34,6.34,0,0,0-4.46-2,5.35,5.35,0,0,0-5.25,5.64,5.4,5.4,0,0,0,5.25,5.69,6.24,6.24,0,0,0,4.57-2.07l1.8,1.82A8.21,8.21,0,0,1,87.46,44.2Z" transform="translate(0 -0.18)"/><path class="cls-2" d="M103.58,43.92h-2.81V30.6h-5V28h12.91V30.6h-5Z" transform="translate(0 -0.18)"/><path class="cls-2" d="M114.55,28V43.92h-2.8V28Z" transform="translate(0 -0.18)"/><path class="cls-2" d="M126.39,44.2a8.09,8.09,0,0,1-8.3-8.21,8.17,8.17,0,0,1,8.35-8.26,8.24,8.24,0,1,1,0,16.47Zm0-13.9A5.38,5.38,0,0,0,121,35.94a5.46,5.46,0,0,0,5.41,5.69A5.39,5.39,0,0,0,131.81,36,5.47,5.47,0,0,0,126.39,30.3Z" transform="translate(0 -0.18)"/><path class="cls-2" d="M149.25,28H152V43.92h-2.34L140.88,32.6V43.92h-2.75V28h2.59l8.53,11Z" transform="translate(0 -0.18)"/></svg>