<?xml version="1.0" encoding="utf-8"?>
<!-- Generator: Adobe Illustrator 22.1.0, SVG Export Plug-In . SVG Version: 6.00 Build 0)  -->
<svg version="1.1" id="Layer_1" xmlns="http://www.w3.org/2000/svg" xmlns:xlink="http://www.w3.org/1999/xlink" x="0px" y="0px"
	 viewBox="0 0 166 63" style="enable-background:new 0 0 166 63;" xml:space="preserve">
<style type="text/css">
	.st0{filter:url(#Adobe_OpacityMaskFilter);}
	.st1{fill:#FFFFFF;}
	.st2{mask:url(#mask-2_1_);fill:#FFFFFF;}
	.st3{filter:url(#Adobe_OpacityMaskFilter_1_);}
	.st4{mask:url(#mask-4_1_);fill:#B6B6B6;}
	.st5{filter:url(#Adobe_OpacityMaskFilter_2_);}
	.st6{mask:url(#mask-6_1_);fill:#F5AF05;}
</style>
<title>Xpel Sprite</title>
<desc>Created with Sketch.</desc>
<g id="Sprite">
	<g id="Xpel-Sprite">
		<g id="Page-1-Copy-2">
			<g id="Clip-2">
			</g>
			<defs>
				<filter id="Adobe_OpacityMaskFilter" filterUnits="userSpaceOnUse" x="0" y="0" width="165" height="42">
					<feColorMatrix  type="matrix" values="1 0 0 0 0  0 1 0 0 0  0 0 1 0 0  0 0 0 1 0"/>
				</filter>
			</defs>
			<mask maskUnits="userSpaceOnUse" x="0" y="0" width="165" height="42" id="mask-2_1_">
				<g class="st0">
					<polygon id="path-1_1_" class="st1" points="165,42 165,0 0,0 0,42 					"/>
				</g>
			</mask>
			<path id="Fill-1" class="st2" d="M148.7,32.9c0.5-2.1,5.7-24.3,5.7-24.3H141L133.3,42h29.6l2.1-9.1H148.7z M135.2,17.5l2-8.8
				h-33.9l-2.8,12c0.4-2.2,0.5-4.5-0.4-6.2c-1.1-2.4-3.7-5.3-9.8-5.8c-1.2-0.1-2.9-0.1-12-0.1l-11.8,0L75.6,0H58.3l-9.8,9.8L42.9,0
				H26.2l12.5,19.6L17.5,42h16.3l10.9-11.9L52.1,42h19.8c0,0,2.4-10,2.7-11.2h11.3l0.1,0c2.7-0.1,7.7-0.3,11.3-3.5
				c1.3-1,2.4-3,3.1-5.2l-4.6,20h33.9l2.1-9h-20.7c0.3-1.2,0.8-3.5,1-4.3h20.7l1.6-6.9h-20.7c0.3-1.2,0.8-3.6,1-4.4H135.2z
				 M90.8,19.6c0,1.2-0.8,2.3-2.8,2.3H63.4l-2,8.5l-6.5-10.8l11.6-11l-2.1,8.8h23.6C90.2,17.4,90.8,18.4,90.8,19.6z M26,13
				c-3.1,0-5.6,2.5-5.6,5.6c0,3.1,2.5,5.6,5.6,5.6c3.1,0,5.6-2.5,5.6-5.6C31.7,15.6,29.2,13,26,13z M17.4,18.6
				c0-2.2-1.8-4.1-4.1-4.1c-2.3,0-4.1,1.8-4.1,4.1c0,2.3,1.8,4.1,4.1,4.1C15.6,22.7,17.4,20.9,17.4,18.6z M6.2,18.6
				c0-1.7-1.4-3.1-3.1-3.1c-1.7,0-3.1,1.4-3.1,3.1c0,1.7,1.4,3.1,3.1,3.1C4.8,21.7,6.2,20.4,6.2,18.6z"/>
		</g>
		<g id="Page-1" transform="translate(0.000000, 44.000000)">
			<g id="Clip-2_1_">
			</g>
			<defs>
				<filter id="Adobe_OpacityMaskFilter_1_" filterUnits="userSpaceOnUse" x="0" y="0" width="28" height="18">
					<feColorMatrix  type="matrix" values="1 0 0 0 0  0 1 0 0 0  0 0 1 0 0  0 0 0 1 0"/>
				</filter>
			</defs>
			<mask maskUnits="userSpaceOnUse" x="0" y="0" width="28" height="18" id="mask-4_1_">
				<g class="st3">
					<polygon id="path-3_1_" class="st1" points="28,0 28,18 0,18 0,0 					"/>
				</g>
			</mask>
			<path id="Fill-1_1_" class="st4" d="M17.2,18c2.2,0,4.4,0,6.5,0c0.1,0,0.3-0.3,0.4-0.4c1.3-5,2.6-10,3.8-15.1
				c0.3-1-0.1-1.9-1-2.2C26.5,0.1,26,0,25.5,0c-6,0-12,0-17.9,0C5.7,0,4.1,1.4,3.7,2.9C3,6,2.2,9.1,1.5,12.1C1,14.1,0.5,16,0,18h6.8
				c0.2-0.6,0.3-1.1,0.4-1.7c1-4.1,2.1-8.1,3.1-12.2c0.2-0.7,0.8-1.1,1.5-0.9C12.5,3.4,12.1,4,12,4.4c-1,3.9-1.9,7.7-2.9,11.6
				c-0.2,0.7-0.3,1.3-0.5,2c2.2,0,4.3,0,6.4,0c0.2,0,0.5-0.3,0.5-0.6c0.9-3.4,1.8-6.9,2.7-10.3C18.5,6,18.7,4.9,19,3.8
				c0.1-0.5,0.8-0.8,1.3-0.7c0.6,0.2,0.4,0.6,0.3,1c-0.7,2.7-1.4,5.4-2,8.1C18.2,14.1,17.7,16,17.2,18"/>
		</g>
		<g id="Page-1-Copy" transform="translate(29.000000, 44.000000)">
			<g id="Clip-2_2_">
			</g>
			<defs>
				<filter id="Adobe_OpacityMaskFilter_2_" filterUnits="userSpaceOnUse" x="0" y="0" width="28" height="18">
					<feColorMatrix  type="matrix" values="1 0 0 0 0  0 1 0 0 0  0 0 1 0 0  0 0 0 1 0"/>
				</filter>
			</defs>
			<mask maskUnits="userSpaceOnUse" x="0" y="0" width="28" height="18" id="mask-6_1_">
				<g class="st5">
					<polygon id="path-5_1_" class="st1" points="28,0 28,18 0,18 0,0 					"/>
				</g>
			</mask>
			<path id="Fill-1_2_" class="st6" d="M17.2,18c2.2,0,4.4,0,6.5,0c0.1,0,0.3-0.3,0.4-0.4c1.3-5,2.6-10,3.8-15.1
				c0.3-1-0.1-1.9-1-2.2C26.5,0.1,26,0,25.5,0c-6,0-12,0-17.9,0C5.7,0,4.1,1.4,3.7,2.9C3,6,2.2,9.1,1.5,12.1C1,14.1,0.5,16,0,18h6.8
				c0.2-0.6,0.3-1.1,0.4-1.7c1-4.1,2.1-8.1,3.1-12.2c0.2-0.7,0.8-1.1,1.5-0.9C12.5,3.4,12.1,4,12,4.4c-1,3.9-1.9,7.7-2.9,11.6
				c-0.2,0.7-0.3,1.3-0.5,2c2.2,0,4.3,0,6.4,0c0.2,0,0.5-0.3,0.5-0.6c0.9-3.4,1.8-6.9,2.7-10.3C18.5,6,18.7,4.9,19,3.8
				c0.1-0.5,0.8-0.8,1.3-0.7c0.6,0.2,0.4,0.6,0.3,1c-0.7,2.7-1.4,5.4-2,8.1C18.2,14.1,17.7,16,17.2,18"/>
		</g>
	</g>
</g>
<g>
	<path class="st1" d="M160.9,1.6c1.5,0,2.8,1.2,2.8,2.8s-1.3,2.8-2.8,2.8s-2.8-1.2-2.8-2.8S159.4,1.6,160.9,1.6z M160.9,2
		c-1.3,0-2.3,1-2.3,2.4s1,2.4,2.3,2.4s2.3-1,2.3-2.4S162.2,2,160.9,2z M160.4,6h-0.5V2.8h1.2c0.8,0,1.1,0.3,1.1,0.9
		s-0.4,0.8-0.8,0.9l0.9,1.4h-0.5l-0.9-1.4h-0.6V6H160.4z M160.4,4.2h0.6c0.6,0,0.8-0.2,0.8-0.5s-0.2-0.5-0.7-0.5h-0.7L160.4,4.2
		L160.4,4.2z"/>
</g>
</svg>
